<?xml version="1.0" standalone="no"?>
<!DOCTYPE svg PUBLIC "-//W3C//DTD SVG 20010904//EN"
 "http://www.w3.org/TR/2001/REC-SVG-20010904/DTD/svg10.dtd">
<svg version="1.0" xmlns="http://www.w3.org/2000/svg"
 width="1200.000000pt" height="975.000000pt" viewBox="0 0 1200.000000 975.000000"
 preserveAspectRatio="xMidYMid meet">
<metadata>
Created by potrace 1.16, written by Peter Selinger 2001-2019
</metadata>
<g transform="translate(0.000000,975.000000) scale(0.100000,-0.100000)"
fill="#000000" stroke="none">
<path d="M4460 9690 c-178 -12 -426 -45 -604 -80 -1151 -229 -2188 -881 -2900
-1823 -439 -581 -747 -1275 -881 -1987 -64 -341 -70 -409 -70 -895 0 -467 3
-518 51 -800 169 -1004 636 -1905 1358 -2619 1081 -1068 2583 -1561 4086
-1340 1205 177 2297 811 3065 1777 192 242 392 558 534 844 45 89 81 164 81
167 0 2 13 33 29 68 55 119 136 340 190 522 89 298 138 548 178 896 33 294 19
888 -27 1160 -5 30 -17 98 -26 152 -19 113 -7 105 -174 114 -202 11 -461 -32
-679 -112 l-103 -39 5 -35 c3 -19 11 -62 16 -95 41 -230 53 -385 54 -660 0
-279 -9 -407 -48 -645 -99 -606 -356 -1198 -739 -1700 -170 -224 -428 -488
-646 -664 -153 -123 -393 -284 -555 -374 -887 -490 -1946 -609 -2930 -327
-1024 293 -1887 1011 -2374 1975 -387 766 -504 1635 -334 2490 196 988 781
1863 1628 2436 359 243 780 433 1185 534 1239 310 2516 13 3473 -808 66 -58
112 -90 120 -86 83 49 282 234 376 349 106 129 230 338 218 368 -3 8 -59 59
-124 114 -515 433 -1112 755 -1738 938 -286 83 -542 134 -855 170 -156 19
-664 28 -840 15z"/>
<path d="M10810 9559 c-69 -39 -390 -219 -715 -401 -324 -182 -635 -356 -690
-387 -55 -31 -220 -124 -366 -206 l-266 -148 -16 -46 c-81 -239 -200 -457
-371 -685 -196 -261 -460 -486 -781 -666 -71 -41 -215 -121 -320 -180 -104
-59 -437 -245 -740 -414 -302 -170 -584 -327 -625 -351 -95 -54 -478 -268
-508 -284 -19 -10 -31 -7 -90 28 -308 183 -683 195 -1001 31 -327 -168 -536
-490 -557 -860 -42 -729 667 -1268 1362 -1035 254 85 475 278 596 520 59 117
108 323 108 454 l0 49 188 105 c103 57 408 228 677 379 270 151 696 390 948
532 601 337 705 388 932 456 250 76 394 95 710 95 268 0 374 -9 522 -47 42
-10 44 -9 185 70 159 88 1269 710 1588 890 113 63 253 142 313 174 130 73 136
87 45 113 -96 26 -828 232 -908 255 -220 64 -424 120 -435 120 -29 0 -32 -16
85 435 28 110 69 268 90 350 94 366 142 551 160 620 21 80 24 105 13 105 -5 0
-64 -32 -133 -71z"/>
<path d="M4465 7795 c-594 -82 -1047 -271 -1495 -624 -125 -99 -356 -330 -458
-458 -322 -408 -524 -874 -602 -1394 -36 -242 -36 -646 0 -854 51 -287 104
-478 190 -680 171 -404 377 -702 699 -1010 438 -419 1020 -693 1641 -770 153
-20 557 -20 710 0 663 83 1261 380 1725 856 150 154 235 259 340 414 322 480
497 1055 494 1624 0 153 -10 285 -21 297 -7 6 -102 -46 -588 -319 -107 -60
-231 -129 -275 -153 l-80 -43 -13 -89 c-34 -254 -150 -550 -309 -788 -98 -148
-245 -309 -398 -436 -67 -56 -226 -159 -325 -211 -461 -244 -1020 -289 -1525
-122 -416 136 -786 423 -1028 796 -507 780 -394 1808 269 2461 115 113 190
174 306 250 232 152 480 248 778 300 101 17 490 17 590 0 122 -22 299 -69 385
-102 44 -18 87 -34 95 -36 9 -3 213 106 455 241 241 136 454 254 472 263 18 9
32 21 30 26 -5 18 -219 159 -342 226 -265 144 -607 263 -885 309 -36 6 -96 16
-135 22 -111 18 -581 21 -700 4z"/>
</g>
</svg>
