<svg xmlns="http://www.w3.org/2000/svg">
  
    <symbol id="concentration" viewBox="0 0 799.000000 801.000000" preserveAspectRatio="xMidYMid meet">
        <g transform="translate(0.000000,801.000000) scale(0.100000,-0.100000)" stroke="none">
            <path d="M3705 7999 c-793 -65 -1496 -331 -2120 -799 -222 -167 -513 -447
            -692 -667 -492 -604 -792 -1319 -878 -2093 -20 -185 -20 -687 0 -870 41 -357
            125 -700 252 -1020 293 -740 773 -1349 1438 -1825 214 -153 570 -344 835 -448
            926 -362 1990 -362 2905 0 666 264 1231 682 1681 1244 478 598 766 1307 849
            2087 17 161 20 593 5 762 -72 797 -382 1544 -906 2188 -118 145 -421 443 -574
            566 -606 484 -1315 778 -2072 861 -173 19 -572 27 -723 14z m662 -2004 c282
            -41 535 -138 735 -282 212 -152 415 -431 512 -701 28 -79 66 -252 66 -301 l0
            -31 -394 0 -394 0 -28 82 c-56 168 -109 262 -202 360 -99 104 -241 178 -402
            209 -107 21 -340 16 -432 -9 -478 -130 -742 -659 -715 -1432 16 -445 110 -725
            317 -943 127 -134 241 -204 405 -248 65 -18 108 -22 225 -21 171 0 256 18 390
            83 71 35 101 58 180 138 83 82 103 110 147 198 27 56 65 147 83 202 l33 101
            389 0 c363 0 388 -1 388 -17 0 -26 -47 -217 -72 -293 -132 -406 -419 -750
            -775 -928 -446 -225 -1121 -221 -1585 8 -262 129 -487 339 -642 597 -212 354
            -311 834 -286 1384 22 478 131 850 338 1160 274 408 683 649 1182 699 118 12
            407 4 537 -15z"/>
        </g>
    </symbol>

    <symbol id="coins" viewBox="0 0 512.000000 466.000000" preserveAspectRatio="xMidYMid meet">
        <g transform="translate(0.000000,466.000000) scale(0.100000,-0.100000)" stroke="none">
            <path d="M1885 4649 c-799 -45 -1471 -203 -1719 -406 -188 -153 -127 -319 169
            -463 415 -201 1146 -314 2035 -314 621 0 1145 53 1576 159 629 155 876 380
            651 592 -236 223 -902 385 -1777 433 -210 11 -726 11 -935 -1z"/>
            <path d="M51 3500 c-1 -236 1 -269 18 -305 64 -142 378 -299 821 -410 497
            -125 940 -171 1555 -162 616 9 1072 68 1530 198 358 102 649 263 695 385 6 14
            10 145 10 291 l0 265 -47 -52 c-71 -79 -218 -169 -380 -232 l-43 -16 0 -169
            c0 -164 -1 -170 -23 -191 -41 -39 -97 -25 -116 29 -6 18 -11 88 -11 156 0 114
            -2 124 -17 119 -10 -3 -37 -10 -60 -16 l-43 -11 0 -190 c0 -220 -7 -251 -65
            -275 -43 -17 -76 -11 -110 23 -25 26 -25 26 -25 209 0 169 -1 184 -17 184 -10
            0 -74 -9 -143 -21 -369 -60 -713 -84 -1230 -83 -639 0 -1072 42 -1536 150
            -207 47 -346 94 -493 165 -101 49 -135 72 -185 122 -33 34 -66 71 -73 82 -9
            16 -12 -35 -12 -245z"/>
            <path d="M4754 3015 c-25 -138 -307 -302 -703 -411 -540 -148 -1387 -236
            -1979 -206 -405 22 -730 69 -1086 158 -144 36 -357 102 -434 135 -25 11 -47
            18 -49 15 -2 -2 2 -19 10 -38 160 -382 1658 -629 3048 -503 935 85 1560 312
            1559 567 -1 90 -99 196 -252 272 -51 25 -96 46 -100 46 -4 0 -10 -16 -14 -35z"/>
            <path d="M490 2168 l0 -276 33 -48 c118 -176 568 -353 1170 -459 350 -61 651
            -86 1062 -86 523 -1 928 37 1355 127 498 104 880 272 981 432 l29 46 0 268 0
            267 -68 -67 c-78 -77 -137 -114 -289 -182 l-108 -48 -5 -170 c-4 -149 -7 -173
            -24 -191 -26 -29 -71 -27 -101 4 -24 23 -25 29 -25 165 l0 140 -27 -6 c-16 -4
            -44 -12 -63 -18 l-35 -11 -3 -203 c-3 -226 -7 -242 -67 -262 -26 -9 -41 -8
            -70 4 -56 24 -65 57 -65 251 0 125 -3 165 -12 165 -7 0 -67 -9 -133 -20 -375
            -63 -704 -85 -1235 -85 -451 1 -577 7 -925 46 -694 78 -1214 250 -1343 444
            l-32 48 0 -275z"/>
            <path d="M263 1706 c-117 -61 -188 -118 -223 -179 -57 -97 -28 -190 86 -280
            64 -51 264 -147 385 -185 470 -150 1070 -223 1819 -223 490 0 843 26 1234 91
            495 83 844 207 989 352 43 43 85 113 74 124 -3 3 -35 -7 -73 -21 -312 -119
            -737 -214 -1164 -260 -498 -53 -1122 -32 -1725 60 -729 111 -1229 316 -1286
            527 -5 21 -15 38 -22 38 -7 0 -49 -20 -94 -44z"/>
            <path d="M2 869 l3 -276 27 -39 c131 -188 646 -382 1268 -478 606 -92 1345
            -101 1915 -21 618 87 1129 252 1320 427 97 89 95 82 94 395 0 212 -3 264 -12
            248 -7 -11 -39 -47 -72 -80 -382 -384 -2143 -564 -3452 -351 l-143 23 0 -157
            c0 -87 -3 -171 -6 -189 -16 -81 -117 -111 -168 -50 l-26 31 0 203 0 204 -54
            15 c-30 9 -59 16 -65 16 -7 0 -11 -44 -11 -134 0 -74 -3 -142 -6 -151 -10 -24
            -60 -46 -89 -39 -49 12 -55 34 -55 215 l0 166 -47 18 c-81 30 -237 111 -289
            150 -27 20 -68 58 -92 83 l-42 47 2 -276z"/>
        </g>
    </symbol>

    <symbol id="ritual" viewBox="0 0 92.000000 117.000000" preserveAspectRatio="xMidYMid meet">
        <g transform="translate(0.000000,117.000000) scale(0.100000,-0.100000)" stroke="none">
            <path d="M56 1139 c-57 -45 -56 -36 -56 -559 0 -523 -1 -514 56 -559 26 -21
            36 -21 439 -21 367 0 414 2 419 16 8 20 8 1108 0 1128 -5 14 -52 16 -419 16
            -403 0 -413 0 -439 -21z m794 -464 l0 -425 -345 0 -345 0 0 425 0 425 345 0
            345 0 0 -425z m-752 -20 c-2 -316 -6 -409 -16 -413 -9 -3 -12 84 -12 411 0
            227 3 417 7 421 4 3 10 3 15 -2 5 -5 7 -192 6 -417z m752 -535 l0 -60 -368 0
            c-406 0 -412 1 -412 60 0 61 -5 60 406 60 l374 0 0 -60z"/>
            <path d="M250 666 l0 -316 80 0 80 0 0 120 0 120 25 0 c14 0 41 -6 60 -14 29
            -13 42 -30 87 -120 l53 -106 82 0 c46 0 83 3 83 8 0 4 -29 61 -63 127 -42 81
            -72 126 -93 140 l-30 20 30 15 c50 24 76 73 76 144 0 79 -24 120 -88 149 -40
            18 -71 22 -214 25 l-168 4 0 -316z m298 171 c10 -11 17 -33 17 -58 0 -57 -29
            -79 -101 -79 l-54 0 0 81 0 81 60 -4 c39 -3 67 -10 78 -21z"/>
        </g>
    </symbol>

</svg>
