<?xml version="1.0" standalone="no"?>
<!DOCTYPE svg PUBLIC "-//W3C//DTD SVG 20010904//EN"
 "http://www.w3.org/TR/2001/REC-SVG-20010904/DTD/svg10.dtd">
<svg version="1.0" xmlns="http://www.w3.org/2000/svg"
 width="512.000000pt" height="466.000000pt" viewBox="0 0 512.000000 466.000000"
 preserveAspectRatio="xMidYMid meet">

<g transform="translate(0.000000,466.000000) scale(0.100000,-0.100000)"
fill="#000000" stroke="none">
<path d="M1885 4649 c-799 -45 -1471 -203 -1719 -406 -188 -153 -127 -319 169
-463 415 -201 1146 -314 2035 -314 621 0 1145 53 1576 159 629 155 876 380
651 592 -236 223 -902 385 -1777 433 -210 11 -726 11 -935 -1z"/>
<path d="M51 3500 c-1 -236 1 -269 18 -305 64 -142 378 -299 821 -410 497
-125 940 -171 1555 -162 616 9 1072 68 1530 198 358 102 649 263 695 385 6 14
10 145 10 291 l0 265 -47 -52 c-71 -79 -218 -169 -380 -232 l-43 -16 0 -169
c0 -164 -1 -170 -23 -191 -41 -39 -97 -25 -116 29 -6 18 -11 88 -11 156 0 114
-2 124 -17 119 -10 -3 -37 -10 -60 -16 l-43 -11 0 -190 c0 -220 -7 -251 -65
-275 -43 -17 -76 -11 -110 23 -25 26 -25 26 -25 209 0 169 -1 184 -17 184 -10
0 -74 -9 -143 -21 -369 -60 -713 -84 -1230 -83 -639 0 -1072 42 -1536 150
-207 47 -346 94 -493 165 -101 49 -135 72 -185 122 -33 34 -66 71 -73 82 -9
16 -12 -35 -12 -245z"/>
<path d="M4754 3015 c-25 -138 -307 -302 -703 -411 -540 -148 -1387 -236
-1979 -206 -405 22 -730 69 -1086 158 -144 36 -357 102 -434 135 -25 11 -47
18 -49 15 -2 -2 2 -19 10 -38 160 -382 1658 -629 3048 -503 935 85 1560 312
1559 567 -1 90 -99 196 -252 272 -51 25 -96 46 -100 46 -4 0 -10 -16 -14 -35z"/>
<path d="M490 2168 l0 -276 33 -48 c118 -176 568 -353 1170 -459 350 -61 651
-86 1062 -86 523 -1 928 37 1355 127 498 104 880 272 981 432 l29 46 0 268 0
267 -68 -67 c-78 -77 -137 -114 -289 -182 l-108 -48 -5 -170 c-4 -149 -7 -173
-24 -191 -26 -29 -71 -27 -101 4 -24 23 -25 29 -25 165 l0 140 -27 -6 c-16 -4
-44 -12 -63 -18 l-35 -11 -3 -203 c-3 -226 -7 -242 -67 -262 -26 -9 -41 -8
-70 4 -56 24 -65 57 -65 251 0 125 -3 165 -12 165 -7 0 -67 -9 -133 -20 -375
-63 -704 -85 -1235 -85 -451 1 -577 7 -925 46 -694 78 -1214 250 -1343 444
l-32 48 0 -275z"/>
<path d="M263 1706 c-117 -61 -188 -118 -223 -179 -57 -97 -28 -190 86 -280
64 -51 264 -147 385 -185 470 -150 1070 -223 1819 -223 490 0 843 26 1234 91
495 83 844 207 989 352 43 43 85 113 74 124 -3 3 -35 -7 -73 -21 -312 -119
-737 -214 -1164 -260 -498 -53 -1122 -32 -1725 60 -729 111 -1229 316 -1286
527 -5 21 -15 38 -22 38 -7 0 -49 -20 -94 -44z"/>
<path d="M2 869 l3 -276 27 -39 c131 -188 646 -382 1268 -478 606 -92 1345
-101 1915 -21 618 87 1129 252 1320 427 97 89 95 82 94 395 0 212 -3 264 -12
248 -7 -11 -39 -47 -72 -80 -382 -384 -2143 -564 -3452 -351 l-143 23 0 -157
c0 -87 -3 -171 -6 -189 -16 -81 -117 -111 -168 -50 l-26 31 0 203 0 204 -54
15 c-30 9 -59 16 -65 16 -7 0 -11 -44 -11 -134 0 -74 -3 -142 -6 -151 -10 -24
-60 -46 -89 -39 -49 12 -55 34 -55 215 l0 166 -47 18 c-81 30 -237 111 -289
150 -27 20 -68 58 -92 83 l-42 47 2 -276z"/>
</g>
</svg>
