<?xml version="1.0" standalone="no"?>
<!DOCTYPE svg PUBLIC "-//W3C//DTD SVG 20010904//EN"
 "http://www.w3.org/TR/2001/REC-SVG-20010904/DTD/svg10.dtd">
<svg version="1.0" xmlns="http://www.w3.org/2000/svg"
 width="335.000000pt" height="335.000000pt" viewBox="0 0 335.000000 335.000000"
 preserveAspectRatio="xMidYMid meet">

<g transform="translate(0.000000,335.000000) scale(0.100000,-0.100000)"
fill="grey" stroke="none">
<path d="M972 3117 l-192 -192 -58 58 -57 57 -185 -185 -185 -185 58 -58 57
-57 -190 -190 -190 -190 0 -250 0 -250 238 -238 237 -237 250 0 250 0 563 563
562 562 0 255 0 255 -238 238 -238 238 -245 -1 -245 -1 -192 -192z m1038 -663
c0 -42 -5 -75 -12 -82 -10 -10 -81 56 -335 310 l-323 323 47 47 47 48 288
-288 288 -288 0 -70z m-1225 -994 l-45 -45 -290 290 -290 290 0 65 c0 39 5 71
12 78 10 10 81 -56 335 -310 l323 -323 -45 -45z"/>
<path d="M1665 1710 l-180 -180 60 -60 c33 -34 230 -231 437 -438 208 -207
378 -381 378 -386 0 -6 -10 -20 -21 -32 -27 -29 -33 -20 151 -234 253 -294
279 -320 308 -320 22 0 77 49 287 261 l260 260 -60 57 c-33 31 -139 124 -235
206 -96 82 -187 160 -201 173 -33 30 -73 38 -89 18 -7 -8 -18 -15 -24 -15 -6
0 -207 196 -446 435 -239 239 -437 435 -440 435 -3 0 -86 -81 -185 -180z m259
-69 l48 -48 -137 -48 -136 -48 -50 49 c-27 26 -45 52 -41 56 10 10 231 86 252
87 9 1 37 -21 64 -48z m262 -268 c-2 -2 -63 -24 -137 -48 l-134 -45 -49 50
c-28 27 -48 51 -46 53 3 2 64 24 135 49 l130 46 52 -51 c29 -28 51 -52 49 -54z
m87 -265 l-137 -48 -48 47 c-26 26 -48 50 -48 54 0 4 60 27 133 52 l132 45 52
-51 53 -51 -137 -48z m302 -118 c27 -27 46 -52 43 -55 -3 -3 -64 -25 -135 -49
l-131 -44 -51 52 -50 51 132 47 c73 25 134 46 137 47 3 1 28 -21 55 -49z"/>
</g>
</svg>
