<?xml version="1.0" standalone="no"?>
<!DOCTYPE svg PUBLIC "-//W3C//DTD SVG 20010904//EN"
 "http://www.w3.org/TR/2001/REC-SVG-20010904/DTD/svg10.dtd">
<svg version="1.0" xmlns="http://www.w3.org/2000/svg"
 width="807.000000pt" height="806.000000pt" viewBox="0 0 807.000000 806.000000"
 preserveAspectRatio="xMidYMid meet">

<g transform="translate(0.000000,806.000000) scale(0.100000,-0.100000)"
fill="#000000" stroke="none">
<path d="M3942 8040 c-26 -12 -94 -68 -165 -138 -67 -64 -615 -590 -1217
-1167 -602 -578 -1268 -1216 -1480 -1420 -212 -203 -530 -509 -707 -678 -351
-337 -363 -351 -363 -454 0 -100 67 -194 159 -221 28 -9 348 -12 1205 -12
l1166 0 0 -1876 c0 -1395 3 -1887 12 -1915 15 -52 68 -113 121 -138 43 -21 45
-21 1367 -21 1322 0 1324 0 1367 21 53 25 106 86 121 138 9 28 12 520 12 1915
l0 1876 1166 0 c857 0 1177 3 1205 12 52 15 113 68 138 121 28 57 28 146 1
202 -24 50 178 -146 -2028 1970 -1258 1207 -1839 1759 -1874 1778 -62 34 -141
36 -206 7z"/>
</g>
</svg>
