<?xml version="1.0" standalone="no"?>
<!DOCTYPE svg PUBLIC "-//W3C//DTD SVG 20010904//EN"
 "http://www.w3.org/TR/2001/REC-SVG-20010904/DTD/svg10.dtd">
<svg version="1.0" xmlns="http://www.w3.org/2000/svg"
 width="799.000000pt" height="801.000000pt" viewBox="0 0 799.000000 801.000000"
 preserveAspectRatio="xMidYMid meet">

<g transform="translate(0.000000,801.000000) scale(0.100000,-0.100000)"
fill="#000000" stroke="none">
<path d="M3705 7999 c-793 -65 -1496 -331 -2120 -799 -222 -167 -513 -447
-692 -667 -492 -604 -792 -1319 -878 -2093 -20 -185 -20 -687 0 -870 41 -357
125 -700 252 -1020 293 -740 773 -1349 1438 -1825 214 -153 570 -344 835 -448
926 -362 1990 -362 2905 0 666 264 1231 682 1681 1244 478 598 766 1307 849
2087 17 161 20 593 5 762 -72 797 -382 1544 -906 2188 -118 145 -421 443 -574
566 -606 484 -1315 778 -2072 861 -173 19 -572 27 -723 14z m662 -2004 c282
-41 535 -138 735 -282 212 -152 415 -431 512 -701 28 -79 66 -252 66 -301 l0
-31 -394 0 -394 0 -28 82 c-56 168 -109 262 -202 360 -99 104 -241 178 -402
209 -107 21 -340 16 -432 -9 -478 -130 -742 -659 -715 -1432 16 -445 110 -725
317 -943 127 -134 241 -204 405 -248 65 -18 108 -22 225 -21 171 0 256 18 390
83 71 35 101 58 180 138 83 82 103 110 147 198 27 56 65 147 83 202 l33 101
389 0 c363 0 388 -1 388 -17 0 -26 -47 -217 -72 -293 -132 -406 -419 -750
-775 -928 -446 -225 -1121 -221 -1585 8 -262 129 -487 339 -642 597 -212 354
-311 834 -286 1384 22 478 131 850 338 1160 274 408 683 649 1182 699 118 12
407 4 537 -15z"/>
</g>
</svg>
