<?xml version="1.0" standalone="no"?>
<!DOCTYPE svg PUBLIC "-//W3C//DTD SVG 20010904//EN"
 "http://www.w3.org/TR/2001/REC-SVG-20010904/DTD/svg10.dtd">
<svg version="1.0" xmlns="http://www.w3.org/2000/svg"
 width="92.000000pt" height="117.000000pt" viewBox="0 0 92.000000 117.000000"
 preserveAspectRatio="xMidYMid meet">

<g transform="translate(0.000000,117.000000) scale(0.100000,-0.100000)"
fill="grey" stroke="none">
<path d="M56 1139 c-57 -45 -56 -36 -56 -559 0 -523 -1 -514 56 -559 26 -21
36 -21 439 -21 367 0 414 2 419 16 8 20 8 1108 0 1128 -5 14 -52 16 -419 16
-403 0 -413 0 -439 -21z m794 -464 l0 -425 -345 0 -345 0 0 425 0 425 345 0
345 0 0 -425z m-752 -20 c-2 -316 -6 -409 -16 -413 -9 -3 -12 84 -12 411 0
227 3 417 7 421 4 3 10 3 15 -2 5 -5 7 -192 6 -417z m752 -535 l0 -60 -368 0
c-406 0 -412 1 -412 60 0 61 -5 60 406 60 l374 0 0 -60z"/>
<path d="M250 666 l0 -316 80 0 80 0 0 120 0 120 25 0 c14 0 41 -6 60 -14 29
-13 42 -30 87 -120 l53 -106 82 0 c46 0 83 3 83 8 0 4 -29 61 -63 127 -42 81
-72 126 -93 140 l-30 20 30 15 c50 24 76 73 76 144 0 79 -24 120 -88 149 -40
18 -71 22 -214 25 l-168 4 0 -316z m298 171 c10 -11 17 -33 17 -58 0 -57 -29
-79 -101 -79 l-54 0 0 81 0 81 60 -4 c39 -3 67 -10 78 -21z"/>
</g>
</svg>
